<svg xmlns="http://www.w3.org/2000/svg" width="1528.648" height="1093.759" viewBox="0 0 1528.648 1093.759"><defs><style>.a,.c{fill:#213d77;}.a,.b{opacity:0.1;}.b{fill:#6c63ff;}.c,.d{fill-rule:evenodd;}.d{fill:#718cc5;}</style></defs><g transform="translate(-3.041 0.002)"><path class="a" d="M157.606,884.093c9.612,22.989,22.222,45.026,39.872,61.93,21.5,20.594,48.209,31.828,76.8,37.2a232.953,232.953,0,0,0,25.491,3.274c22.6,1.726,45.734.58,67.927-1.815a808.483,808.483,0,0,0,160-33.971q12.821-4.107,25.491-8.645,19.118-6.8,37.892-14.6c50.983-21.144,103.69-48.107,157.927-39.744,26.286,4.062,50.983,16.368,77.329,20.029a139.3,139.3,0,0,0,55.241-3.9,190.842,190.842,0,0,0,25.491-8.734,290.666,290.666,0,0,0,52.962-29.76c39.737-27.558,75.395-61.722,117.23-85.589,46.125-26.323,97.182-38.836,149.2-48.166q12.716-2.277,25.492-4.345c24.067-3.943,48.193-7.589,71.976-11.9,22.912-4.2,46.229-9.33,66.173-21.948,14.23-8.928,26.2-21.472,37.172-34.61a412.555,412.555,0,0,0,51.762-79.191q1.125-2.232,2.2-4.464c22.028-44.848,36.843-93.743,45.93-144.335.27-1.488.524-2.976.779-4.464,8.547-49.595,11.667-100.871,10.722-151.775l-.09-4.464c-.585-25.132-2.159-50.16-4.5-74.831-1.679-17.35-3.928-35.355-12.986-49.937s-23.8-23.957-38.552-31.754c-64.928-34.328-127.172-43.881-197.019-27.245-11.216,2.664-22.387,5.535-33.558,8.511-8.5,2.262-17,4.6-25.491,6.949-58.675,16.234-117.2,33.509-177.855,38.688q-8.8.759-17.589,1.161-17.409.8-34.818.357a606.077,606.077,0,0,1-89.13-9.106q-12.775-2.187-25.491-4.851c-36.618-7.574-72.86-17.677-108.594-28.837q-10.931-3.422-21.832-6.964c-16.374-5.312-32.749-10.728-49.153-16C653.039,60.521,603.825,46.1,553.187,40.3Q546.68,39.57,540.172,39c-4.154-.357-8.322-.64-12.476-.848C449.047,33.99,369.5,52.813,299.773,91.337q-12.986,7.172-25.491,15.237-17.349,11.2-33.634,24.105c-22.252,17.633-43.08,37.706-58.945,61.826-15.46,23.5-25.491,49.877-31.264,77.613-.315,1.488-.615,2.976-.885,4.464-8.472,44.774-5.833,92.791,3.674,137.654,1,4.7,2.069,9.419,3.179,14.121.345,1.488.7,2.976,1.065,4.464,10.257,42.423,23.362,84.726,19.943,128.1-.435,5.461-1.125,10.877-2.024,16.234-.255,1.488-.51,2.976-.795,4.464-6.688,35.385-21.893,68.954-31.01,104A318.091,318.091,0,0,0,157.606,884.093Z" transform="translate(-130.531 -37.59)"/><path class="a" d="M268.99,426.18H151.084c.345,1.488.7,2.976,1.065,4.464H268.99V574.982H170.073c-.255,1.488-.51,2.976-.795,4.464H268.99v403.6a233.161,233.161,0,0,0,25.5,3.274V579.446H522.47V950.529q12.824-4.106,25.5-8.645V579.446H876.442V903.671a190.861,190.861,0,0,0,25.5-8.735V579.476h319.475V731.433q12.719-2.277,25.5-4.345V579.446h227.172q1.125-2.232,2.205-4.464H1246.914V430.644h275.363c.27-1.488.525-2.976.78-4.464H1246.914V274.4h286.823l-.091-4.464H1246.914V94.678c-8.5,2.262-17.009,4.6-25.5,6.949v168.31H909.44l-.78-.848,117.231-127.628q-17.414.8-34.827.357L901.94,238.9V132.712q-12.779-2.187-25.5-4.851V233.987L746.058,92.045c-16.379-5.312-32.758-10.729-49.167-16l177.3,193.041-.779.848H547.938V40.113q-6.51-.729-13.019-1.295c-4.154-.357-8.324-.64-12.479-.848V269.938H294.458V91.152q-12.989,7.172-25.5,15.237V269.938H145.115c-.315,1.488-.615,2.976-.885,4.464H268.99ZM522.47,274.4V426.18H294.488V274.4Zm25.5,0H876.442V426.18H547.968ZM1221.416,426.18H901.941V278.464l4.5-4.062h314.975Zm-319.475,148.8V430.644h319.475V574.982Zm-353.972,0V430.644H876.442V574.982ZM294.488,430.644H522.47V574.982H294.488Z" transform="translate(-2.047 107.441)"/><path class="a" d="M667.686,226.771a18.915,18.915,0,0,1,6.421-3.65,43.154,43.154,0,0,1,16.33-1.774,71.852,71.852,0,0,1,11.976,1.671l184.179,52.128c3.474.982,6.89,2.14,10.262,3.43,11.874-4.647,45.444-18.1,49.123-22.912l14.425,4.222-24.071,35.93h0a3.3,3.3,0,0,1-.234,6.128c-27.75,9.543-69.661-3.108-69.661-3.108L705.522,252.865S656.9,236.447,667.686,226.771Z" transform="translate(138.016 51.767)"/><ellipse class="b" cx="2.345" cy="1.407" rx="2.345" ry="1.407" transform="translate(1016.937 338.369) rotate(-71.78)"/><ellipse class="b" cx="2.345" cy="1.407" rx="2.345" ry="1.407" transform="translate(1011.251 336.51) rotate(-71.78)"/><ellipse class="b" cx="2.345" cy="1.407" rx="2.345" ry="1.407" transform="translate(1000.303 332.93) rotate(-71.78)"/><ellipse class="b" cx="2.345" cy="1.407" rx="2.345" ry="1.407" transform="translate(969.452 323.938) rotate(-71.78)"/><ellipse class="b" cx="2.345" cy="1.407" rx="2.345" ry="1.407" transform="translate(964.012 322.175) rotate(-71.78)"/><ellipse class="b" cx="2.345" cy="1.407" rx="2.345" ry="1.407" transform="translate(958.396 320.862) rotate(-71.78)"/><ellipse class="b" cx="2.345" cy="1.407" rx="2.345" ry="1.407" transform="translate(952.739 319.025) rotate(-71.78)"/><ellipse class="b" cx="2.345" cy="1.407" rx="2.345" ry="1.407" transform="translate(947.192 317.203) rotate(-71.78)"/><ellipse class="b" cx="2.345" cy="1.407" rx="2.345" ry="1.407" transform="translate(942.151 315.56) rotate(-71.78)"/><ellipse class="b" cx="2.345" cy="1.407" rx="2.345" ry="1.407" transform="translate(936.753 313.789) rotate(-71.78)"/><ellipse class="b" cx="2.345" cy="1.407" rx="2.345" ry="1.407" transform="translate(931.111 311.951) rotate(-71.78)"/><ellipse class="b" cx="2.345" cy="1.407" rx="2.345" ry="1.407" transform="translate(926.097 310.316) rotate(-71.78)"/><ellipse class="b" cx="2.345" cy="1.407" rx="2.345" ry="1.407" transform="translate(895.136 302.014) rotate(-71.928)"/><ellipse class="b" cx="2.345" cy="1.407" rx="2.345" ry="1.407" transform="translate(887.094 299.542) rotate(-71.78)"/><ellipse class="b" cx="2.345" cy="1.407" rx="2.345" ry="1.407" transform="translate(881.586 297.741) rotate(-71.78)"/><ellipse class="b" cx="2.345" cy="1.407" rx="2.345" ry="1.407" transform="translate(876.251 296.007) rotate(-71.78)"/><ellipse class="b" cx="2.345" cy="1.407" rx="2.345" ry="1.407" transform="translate(870.998 294.291) rotate(-71.78)"/><ellipse class="b" cx="2.345" cy="1.407" rx="2.345" ry="1.407" transform="translate(865.067 292.333) rotate(-71.78)"/><ellipse class="b" cx="2.345" cy="1.407" rx="2.345" ry="1.407" transform="translate(892.371 301.265) rotate(-71.78)"/><ellipse class="b" cx="2.345" cy="1.407" rx="2.345" ry="1.407" transform="translate(1005.344 334.573) rotate(-71.78)"/><rect class="b" width="5.189" height="9.045" transform="matrix(-0.971, -0.24, 0.24, -0.971, 920.915, 313.446)"/><rect class="b" width="5.189" height="9.045" transform="matrix(-0.971, -0.24, 0.24, -0.971, 860.301, 296.233)"/><path class="b" d="M559.638,185.21l6.7,1.759-3.342,5.043-9.924-2.463Z" transform="translate(271.448 89.859)"/><path class="b" d="M671.57,223.161l14.469,3.767,5.512-3.4-3.65-2.14A43.155,43.155,0,0,0,671.57,223.161Z" transform="translate(136.932 51.507)"/><path class="a" d="M887.017,248.872l-24.07,36.047-39.316-17.43s44.52-16.975,48.918-22.839Z" transform="translate(213.179 62.998)"/><path class="b" d="M618.51,213.63l63.519,17.151,3.753,7.506Z" transform="translate(304.693 103.717)"/><path class="a" d="M320.123,129.588h1.921a4.749,4.749,0,0,1-2.346-3.841h0c0-3.02,3.709-5.5,8.238-5.5h57.787c4.529,0,8.238,2.477,8.238,5.5h0c0,3.034-3.709,5.512-8.238,5.512h-1.935a4.793,4.793,0,0,1,2.36,3.841c0,2.58-2.7,4.764-6.318,5.351h16.638c4.53,0,8.253,2.477,8.253,5.5s-3.723,5.512-8.253,5.512H338.682c-4.53,0-8.238-2.477-8.238-5.512,0-2.58,2.7-4.75,6.3-5.336H320.123c-4.544,0-8.253-2.477-8.253-5.512S315.579,129.588,320.123,129.588Z" transform="translate(-41.602 0.924)"/><path class="a" d="M747.283,165.363h1.964a4.778,4.778,0,0,1-2.345-3.841h0c0-3.035,3.708-5.512,8.238-5.512h57.787c4.53,0,8.239,2.477,8.239,5.512h0c0,3.02-3.709,5.5-8.239,5.5h-1.935a4.808,4.808,0,0,1,2.36,3.841c0,2.595-2.7,4.764-6.3,5.351h16.624c4.544,0,8.253,2.477,8.253,5.512s-3.708,5.5-8.253,5.5H765.856c-4.544,0-8.253-2.477-8.253-5.5,0-2.58,2.7-4.764,6.3-5.351H747.283c-4.544,0-8.253-2.477-8.253-5.512S742.739,165.363,747.283,165.363Z" transform="translate(171.451 17.586)"/><path class="a" d="M259.623,318.422h1.935a4.779,4.779,0,0,1-2.36-3.841h0c0-3.034,3.709-5.512,8.238-5.512h57.787c4.53,0,8.238,2.477,8.238,5.512h0c0,3.02-3.709,5.5-8.238,5.5h-1.935a4.779,4.779,0,0,1,2.361,3.841c0,2.58-2.7,4.764-6.3,5.35h16.623c4.544,0,8.253,2.477,8.253,5.512s-3.709,5.5-8.253,5.5H278.255c-4.544,0-8.253-2.478-8.253-5.5,0-2.595,2.7-4.764,6.318-5.351h-16.7c-4.53,0-8.253-2.477-8.253-5.512S255.226,318.422,259.623,318.422Z" transform="translate(-75.646 94.246)"/><g transform="translate(40.699 331.915)"><g transform="translate(0 0)"><path class="c" d="M123.248,116.048c5.657-.731,10.483-1.774,14-5.854-12.016,1.853-24.063,6.388-34.9,9.7-21.594,6.608-45.2,12.092-67.366,17.8-7.007,1.8-16.947,1.624-24.244,4.863-5.242,2.328-3.864,1.247-3.64,8.607L117.54,129.33c-8.927,14.635-12.971,17.957-14.673,37.382-1.476,16.835-1.805,34.205-2.082,51.215-17.571,4.154-90.9-1.3-100.784,3,21.532,10.121,61.638,7.258,87.019,7.326,23.024.061,11.432,1.3,14.613,40.629-21.875-2.477-44.244-6.817-66.231-8.451-12.394-.92-11.1,3.517-12.009,13.425l34.731,6.384c7.159,1.276,7.127.56,9.2,5.939-10-1.646-20.462-3.987-30.311-6.021C31.87,279.1,26,276.884,21.029,277.418c-2.556.275-10.993,2.569-15.547,3.295,8.268,2.652,85.3,18.413,88.921,23.255,1.489,1.99.442,2.369,2.7,5.013,1.576,1.842,3.979,2.635,6.086,3.718-6.29.588-3.577-.817-6.809-4.106-3.88-3.95-27.325-8.679-32.342-9.723-14.069-2.929-32.76-8.146-46.72-9.54,4.207,2.844,10.246,4,15.161,5.578,75.26,24.16,151.872,44.869,227.226,68.585,121.136,38.126,242.9,72.886,364.5,110.252,40.42,12.421,81.415,23.482,121.21,36.575,29.847,9.819,60.806,18.243,90.885,27.565,18.791,5.824,17.824-3.685,28.971-2.377,13.18,1.545,48.321,11.579,63.464,15.267,22.624,5.512,47.721,8.611,71.65,9.894-.329-.229-.834-.918-1.027-.626l-8.287-3.235-28.784-7.933c-13.122-3.5-26.073-6.941-39.1-10.785C893.682,529.379,700.3,477.7,691.261,472.646c11.495-9.935,9.553-9.108,14.657-25.357l37.316,7.628c-1.622,17.538.221,12.815,41.472,15.534,55.7,3.67,112.253,9.869,167.89,11.586l4.592-4.775c28.152,5.111,58.839,14.708,87.224,21.315l107.771,26.563c11.637,2.849,10.1-1.093,19.979-4.074,9.229-2.785,94.838,18.765,143.384,16.893L974.891,461.525c3.085-5.021,2.658-4.481,8.7-5.656,4.1-.8,8.638-1.4,12.225-2.062,5.042-15.548-2.184-9.719-.244-26.339,14.156-9.031,57.558-15.078,79.266-43.953,7.281-9.685,9.107-18.266,9.4-32.846-12.642-1.576-49.262,2.2-64.935,2.612-140.291,3.668-300.968-8.771-438.941-25.735-78.684-9.675-158.494-16.764-236.826-27.929-78.555-11.2-158.114-18.366-236.372-30.009l-1.316-40.957c16.371-2.038,46.787.166,64.525.47,64.279,1.1,129.436.774,193.645,4.2l1.121,51.258,37.492,1.273-.2-51.176c15.341-2.657,96.368,1.943,117.61,2.731,37.638,1.4,71.947,6.618,108.313,12.734,59.99,10.09,120.645,20.4,180.316,32.139,10.811,2.127,13.663,4.374,22.521-.679-2.742-2.481-6.65-2.77-10.4-3.677-97.407-23.549-193.4-55.058-294.674-61.725-39.893-2.627-82.461-1.322-122.723-1.108-2.368-10.548,1.113-63.893,1.945-78.024,1.338-22.759,1.154-53.131,13.332-68.908,11.566-4.285,40.5-8.219,54.617-11.049C533.719,44.991,589.792,35.8,652.212,36.6l4.1-9.324c-84.977-4.07-151.131,15.676-233.3,32.039,2.862-7.794,16.383-7.636,24.244-9.478,9.436-2.21,18.666-4.078,28.122-6.056,19.25-4.024,38.435-8.127,57.353-12.414a453.331,453.331,0,0,1,59.313-9.542c24.963-2.164,43.274-.029,67.586.932C662.042,21.09,672.7,12.149,674.057,9.6,645.82,7.205,623.823,2.38,594.714,5.934,547.687,11.677,437.69,40.578,387.552,52.142c-8.67,2-246.758,57.963-254,62.026-5.432,3.047-1.728,1.526-5.464,1.028l-4.839.853Z" transform="translate(0 39.307)"/><path class="c" d="M261.171,219.96c19.035,13.737,54.843,39.572,74.5,52.04,8.568,5.435,17.1,11.267,25.494,17.1,14.261,9.908,42.406,23.218,65.5,17.076,13.983-3.719,11.737-15.065,9.627-30.05-4.66-33.116-21.649-62.442-35.963-92.033-4.147-8.574-10.86-15.83-16.868-24.422-18.722-26.778-46.14-52.212-68.186-77.756-6.982-8.09-23.91-22.648-33.25-30-16.433-12.94-31.452-21.211-55.123-30.123C93.572-28.418,51.434,40.566,74.364,73.692c30.294,43.765,145.542,116.488,186.807,146.266Z" transform="translate(598.176 34.131)"/><path class="d" d="M263.888,129.8c.032-15.911,2.1-72.33,5.627-87.716,2.129-9.277,5.749-15.311,8.3-23.612-27.971,4.827-57.47,11.513-85.183,17.656C174.82,40.076,29.44,68.751,25.494,72.891,11.094,88,11.179,136.5,10.995,161.263l252.095-3.272.348-21.419c.267-3.591.559-5.023,2.178-7.281l-.2,28.41,32.421.236c.891-4.5,2.267-65.208,3.145-78.112,2.172-31.873.119-41.348,12.5-68.358-6.807.707-29.639,3.883-33.3,7.568-12.206,12.293-13.322,77.825-13.881,99.534-.018.7-.141,4.8-.207,5.214-.4,2.5.241-.061-.542,2.511-.873,2.87-.415,1.792-1.66,3.508Z" transform="translate(92.533 96.5)"/><path class="c" d="M330.265,100.572c3.634-1.977,7.5-7.806,9.789-11.494l-6.882-5.526c-3.025-1.932-4.1-2.6-7.1-4.484C263.638,39.83,212.051,14.817,132.815,15.6c-9.426.093-67.6,4.862-79.127,8.127l-5.066,2.528-5.693,91.573c61.764-2.69,143.774-.315,204.808,12.559,20.054,4.23,37.86,10.285,56.475,15.006,4.355-6.536,8.031-15.24,12.455-22.266,3.221-5.115,12.58-18.608,13.6-22.554Z" transform="translate(374.189 131.144)"/><path class="c" d="M15.158,54.541c3.23,2.083,1.34,1.886,12.069-.041C71.336,46.579,182.7,28.763,215.818,25.557l-1.145,13.11c-49.16,4.24-101.433,11.725-150.414,17.886L26.575,61.386c-14.669,1.574-9.474.146-11.44,3.482,1.566,2.761-.01,2.858,9.476,1.537,4.347-.605,8.553-1.015,12.96-1.528,8.683-1.011,16.991-1.9,25.751-2.906,16.349-1.879,33.148-3.712,49.45-5.478,34.064-3.691,67.747-7.712,101.778-11.149l-.392,6.627L15.34,70.232l-.2,34.431,197.081-3.056,5.768-83.915c-34.472,4.979-68.821,11.337-103.217,17.161L19.759,50.8c-6.8,1.988-2.64-1.089-4.6,3.738Z" transform="translate(127.38 148.9)"/><path class="d" d="M324.866,89.854l2.986-6.7c-5.73-1.471-21.752-12.081-28.014-15.825-33.187-19.84-53.229-30.664-93.632-40.548-25.39-6.212-51.818-10.306-78.812-9.9-10.889.166-77.322,3.884-81.59,8.09-2.32,1.848-1.194-1.981-1.93,5.484-.223,2.269-.164,5.635-.3,8.085C150.891,29.8,197.115,31.2,291.086,78.563c7.428,3.744,22.024,10.145,28.514,14.989l4.5-3.145a6.388,6.388,0,0,1,.768-.552Z" transform="translate(379.613 141.863)"/><path class="d" d="M22.557,47.3l305.8,88.02c-4.21-10.525-3.788-11.9-6.195-23.1L25.444,39.521,22.556,47.3Z" transform="translate(196.673 332.619)"/><path class="d" d="M58.69,70.389l92.589,26.418c-2.475-4.751-5.485-6.787-8.3-13.869-2.207-5.556-2.458-12.26-4.692-17.386L65.981,48.412c-.887,12.152-3.256,14.03-7.292,21.978Z" transform="translate(508.544 407.447)"/><path class="d" d="M38.444,78.81l32.541.847-.069-49.8-32.934-.917Z" transform="translate(328.665 243.521)"/><path class="c" d="M45.37,113.263c14.564-7.151,18.778-83.638,8.9-96.847C42.218,16.89,40.623,50.3,39.746,61.332,38.714,74.3,36.581,105.05,45.37,113.263Z" transform="translate(335.205 138.161)"/><path class="c" d="M.776,32.154c13.692,1.039,29.446-1.982,43.37-4.357,14.919-2.544,10.858-2.642,12.873.6-5.66,4.1-34.053,5-43.193,6.555L11.1,45.959c6.7,5.674,6.945,2.177,12.647,5.719-.66,6.15-3.662,7.993-5.979,11.6l40.278-.506.125-39.9C53.142,21.9,5.458,30.038.776,32.154Z" transform="translate(6.528 191.827)"/><path class="c" d="M89.171,41.4c-14.193-.467-23.449-4.036-38.583-.72C46.329,48.054,45,61.929,43.65,71.174c3.312-1.81.594-.141,2.87-1.94L52.641,63.5c9.013-7.426,24.715-12.649,37.05-13.241l.5,14.173,16.259-.289c-6.687-7.169-7.668-1.75-9.77-14.733,4.706-.217,9.845-.24,13.328-2.054l-14.282-4.14L84.419,8.263C82.371,1.9,83.028,2.138,76.849,0c1.485,12.287,11.16,27.514,12.321,41.4Z" transform="translate(377.99 0)"/><path class="c" d="M43.54,18.06,38.707,39.75c8.969-1.877,35.052-7.657,40.419-11.931C82.342,22.648,83.657,12,84.731,4.883L43.54,18.06Z" transform="translate(335.031 41.095)"/><path class="c" d="M34.808,36.629c5.089-.649,10.373-2.691,15.239-4.067L62.067,29.2c6.355-3.032,7.158-12.169,8.893-22.714-8.585,2.37-16.732,5.455-24.969,7.853-7.654,2.229-7.831,1.123-11.184,22.293Z" transform="translate(301.215 54.561)"/><path class="c" d="M31.556,34.024l24.521-6.337L61.09,7.793c-25.964,5.572-25.475,6.749-27.209,15.349-.721,3.578-1.676,7.389-2.325,10.882Z" transform="translate(273.038 65.592)"/><path class="c" d="M28.2,34.368C44.913,29.877,52.459,30.182,54.825,23.8l3.569-14.96c-23.919,5.581-25.667,6.675-30.2,25.525Z" transform="translate(243.978 74.43)"/></g></g></g></svg>