<svg xmlns="http://www.w3.org/2000/svg" width="21.161" height="14.107" viewBox="0 0 21.161 14.107"><defs><style>.a{fill:#213d77;}</style></defs><path class="a" d="M21.033,11.017A11.783,11.783,0,0,0,10.581,4.5,11.785,11.785,0,0,0,.128,11.018a1.188,1.188,0,0,0,0,1.072,11.783,11.783,0,0,0,10.453,6.517A11.785,11.785,0,0,0,21.033,12.09,1.188,1.188,0,0,0,21.033,11.017ZM10.581,16.844a5.29,5.29,0,1,1,5.29-5.29A5.29,5.29,0,0,1,10.581,16.844Zm0-8.817a3.5,3.5,0,0,0-.93.139,1.758,1.758,0,0,1-2.458,2.458,3.519,3.519,0,1,0,3.388-2.6Z" transform="translate(0 -4.5)"/></svg>