<svg xmlns="http://www.w3.org/2000/svg" width="35.5" height="27.606" viewBox="0 0 35.5 27.606"><defs><style>.a{fill:#213d77;}</style></defs><path class="a" d="M17.278,9.415,5.916,18.773v10.1a.986.986,0,0,0,.986.986l6.906-.018a.986.986,0,0,0,.981-.986v-5.9a.986.986,0,0,1,.986-.986h3.944a.986.986,0,0,1,.986.986v5.894a.986.986,0,0,0,.986.989l6.9.019a.986.986,0,0,0,.986-.986V18.767L18.221,9.415A.751.751,0,0,0,17.278,9.415Zm17.948,6.361-5.152-4.247V2.993a.74.74,0,0,0-.74-.74H25.883a.74.74,0,0,0-.74.74V7.468L19.626,2.928a2.958,2.958,0,0,0-3.759,0L.267,15.776a.74.74,0,0,0-.1,1.042l1.571,1.91a.74.74,0,0,0,1.042.1l14.5-11.94a.751.751,0,0,1,.943,0l14.5,11.94a.74.74,0,0,0,1.042-.1l1.571-1.91a.74.74,0,0,0-.1-1.043Z" transform="translate(0.001 -2.254)"/></svg>