<svg xmlns="http://www.w3.org/2000/svg" width="19.99" height="23.625" viewBox="0 0 19.99 23.625"><defs><style>.a{fill:#fff;}</style></defs><path class="a" d="M15.677,7.491a8.21,8.21,0,0,1,1.358.254,5.788,5.788,0,0,1,4.411,5.671v7.247l.529.532.442.444H8.822l.442-.444.529-.532V13.416a5.788,5.788,0,0,1,4.411-5.671,10.054,10.054,0,0,1,1.358-.254m.057-4.116a1.736,1.736,0,0,0-1.764,1.772v.827a7.656,7.656,0,0,0-5.88,7.442v6.5L5.625,22.275v1.181h19.99V22.275l-2.352-2.362v-6.5a7.656,7.656,0,0,0-5.88-7.442V5.147A1.736,1.736,0,0,0,15.62,3.375Zm2.352,21.263h-4.7a2.352,2.352,0,1,0,4.7,0Z" transform="translate(-5.625 -3.375)"/></svg>