<svg xmlns="http://www.w3.org/2000/svg" width="15.5" height="21.7" viewBox="0 0 15.5 21.7"><defs><style>.a{fill:#213d77;}</style></defs><path class="a" d="M14.919,5.35a.581.581,0,0,0,.581-.581V2.831a.581.581,0,0,0-.581-.581H.581A.581.581,0,0,0,0,2.831V5a.581.581,0,0,0,.581.581H4.712A3.494,3.494,0,0,1,7.665,6.9H.581A.581.581,0,0,0,0,7.481V9.419A.581.581,0,0,0,.581,10h7.69A3.347,3.347,0,0,1,4.65,12.84H.581A.581.581,0,0,0,0,13.421v2.568a.581.581,0,0,0,.187.427L8.182,23.8a.581.581,0,0,0,.394.154h4a.581.581,0,0,0,.394-1.008L5.661,16.2a6.636,6.636,0,0,0,6.7-6.2h2.558a.581.581,0,0,0,.581-.581V7.481a.581.581,0,0,0-.581-.581H12.076a6.635,6.635,0,0,0-.69-1.55Z" transform="translate(0 -2.25)"/></svg>