<svg xmlns="http://www.w3.org/2000/svg" width="31.368" height="37.25" viewBox="0 0 31.368 37.25"><defs><style>.a{fill:#fff;}</style></defs><path class="a" d="M21.684,3C13.842,3,6,3.98,6,10.842V29.467a6.869,6.869,0,0,0,6.862,6.862L9.921,39.27v.98h4.372l3.921-3.921h7.391l3.921,3.921h3.921v-.98l-2.941-2.941a6.869,6.869,0,0,0,6.862-6.862V10.842C37.368,3.98,30.35,3,21.684,3ZM12.862,32.408A2.941,2.941,0,1,1,15.8,29.467,2.937,2.937,0,0,1,12.862,32.408Zm6.862-13.724h-9.8V10.842h9.8Zm3.921,0V10.842h9.8v7.842Zm6.862,13.724a2.941,2.941,0,1,1,2.941-2.941A2.937,2.937,0,0,1,30.507,32.408Z" transform="translate(-6 -3)"/></svg>