<svg xmlns="http://www.w3.org/2000/svg" width="44.842" height="53.25" viewBox="0 0 44.842 53.25"><defs><style>.a{fill:#fff;}</style></defs><path class="a" d="M28.421,3C17.211,3,6,4.4,6,14.211V40.836a9.82,9.82,0,0,0,9.809,9.809l-4.2,4.2v1.4h6.25l5.605-5.605H34.026l5.605,5.605h5.605v-1.4l-4.2-4.2a9.82,9.82,0,0,0,9.809-9.809V14.211C50.842,4.4,40.809,3,28.421,3ZM15.809,45.039a4.2,4.2,0,1,1,4.2-4.2A4.2,4.2,0,0,1,15.809,45.039Zm9.809-19.618H11.605V14.211H25.618Zm5.605,0V14.211H45.237V25.421Zm9.809,19.618a4.2,4.2,0,1,1,4.2-4.2A4.2,4.2,0,0,1,41.033,45.039Z" transform="translate(-6 -3)"/></svg>