<svg xmlns="http://www.w3.org/2000/svg" width="57.679" height="40.375" viewBox="0 0 57.679 40.375"><defs><style>.a{fill:#fff;}</style></defs><path class="a" d="M17.3,22.438A10.094,10.094,0,1,0,7.21,12.344,10.089,10.089,0,0,0,17.3,22.438Zm6.921,2.884h-.748a13.936,13.936,0,0,1-12.347,0h-.748A10.385,10.385,0,0,0,0,35.7v2.6a4.327,4.327,0,0,0,4.326,4.326H30.281A4.327,4.327,0,0,0,34.607,38.3V35.7A10.385,10.385,0,0,0,24.225,25.321Zm19.034-2.884a8.652,8.652,0,1,0-8.652-8.652A8.654,8.654,0,0,0,43.259,22.438Zm4.326,2.884h-.342a11.365,11.365,0,0,1-7.967,0h-.342a10.01,10.01,0,0,0-5.02,1.388A13.189,13.189,0,0,1,37.491,35.7v3.461c0,.2-.045.388-.054.577H53.353a4.327,4.327,0,0,0,4.326-4.326A10.089,10.089,0,0,0,47.585,25.321Z" transform="translate(0 -2.25)"/></svg>