<svg xmlns="http://www.w3.org/2000/svg" width="55.938" height="44.75" viewBox="0 0 55.938 44.75"><defs><style>.a{fill:#fff;}</style></defs><path class="a" d="M19.578,22.375A11.188,11.188,0,1,0,8.391,11.188,11.187,11.187,0,0,0,19.578,22.375Zm7.831,2.8H25.95a15.215,15.215,0,0,1-12.743,0h-1.46A11.75,11.75,0,0,0,0,36.919v3.636a4.2,4.2,0,0,0,4.2,4.2H34.961a4.2,4.2,0,0,0,4.2-4.2V36.919A11.75,11.75,0,0,0,27.409,25.172ZM55.64,13.949l-2.43-2.456a1.037,1.037,0,0,0-1.468-.009l-9.16,9.09-3.977-4a1.037,1.037,0,0,0-1.468-.009L34.681,19a1.037,1.037,0,0,0-.009,1.468l7.141,7.193a1.037,1.037,0,0,0,1.468.009l12.35-12.254a1.045,1.045,0,0,0,.009-1.468Z"/></svg>