<svg xmlns="http://www.w3.org/2000/svg" width="27" height="30.857" viewBox="0 0 27 30.857"><defs><style>.a{fill:#fff;}</style></defs><path class="a" d="M3.857,13.5h.814a9.63,9.63,0,0,0,17.658,0h.814a.967.967,0,0,0,.964-.964V6.75a.967.967,0,0,0-.964-.964h-.814a9.63,9.63,0,0,0-17.658,0H3.857a.967.967,0,0,0-.964.964v5.786A.967.967,0,0,0,3.857,13.5ZM6.268,8.2A2.685,2.685,0,0,1,9.161,5.786h8.679A2.685,2.685,0,0,1,20.732,8.2V9.643a5.787,5.787,0,0,1-5.786,5.786H12.054A5.787,5.787,0,0,1,6.268,9.643Zm4.339,4.339.723-2.17,2.17-.723L11.33,8.92l-.723-2.17L9.884,8.92l-2.17.723,2.17.723Zm9.137,6.834a11.492,11.492,0,0,1-12.487,0A8.077,8.077,0,0,0,0,27.386v.579a2.894,2.894,0,0,0,2.893,2.893H7.714V27a1.926,1.926,0,0,1,1.929-1.929h7.714A1.926,1.926,0,0,1,19.286,27v3.857h4.821A2.894,2.894,0,0,0,27,27.964v-.579A8.077,8.077,0,0,0,19.744,19.37ZM16.393,27a.964.964,0,1,0,.964.964A.967.967,0,0,0,16.393,27Zm-5.786,0a.967.967,0,0,0-.964.964v2.893h1.929V27.964A.967.967,0,0,0,10.607,27Z"/></svg>