<svg xmlns="http://www.w3.org/2000/svg" width="31" height="31" viewBox="0 0 31 31"><defs><style>.a{fill:#213d77;}</style></defs><path class="a" d="M14.208,13.969A.972.972,0,0,0,13.24,13H8.4v3.875a1.292,1.292,0,0,1-2.583,0V13H.969A.971.971,0,0,0,0,13.969V26.24a.971.971,0,0,0,.969.969H13.24a.972.972,0,0,0,.969-.969Z" transform="translate(0 3.792)"/><path class="a" d="M27.208,13.969A.972.972,0,0,0,26.24,13H21.4v3.875a1.292,1.292,0,0,1-2.583,0V13H13.969a.971.971,0,0,0-.969.969V26.24a.971.971,0,0,0,.969.969H26.24a.972.972,0,0,0,.969-.969Z" transform="translate(3.792 3.792)"/><path class="a" d="M20.708.969A.972.972,0,0,0,19.74,0H14.9V3.875a1.292,1.292,0,1,1-2.583,0V0H7.469A.972.972,0,0,0,6.5.969V13.24a.971.971,0,0,0,.969.969H19.74a.972.972,0,0,0,.969-.969Z" transform="translate(1.896)"/></svg>