<svg xmlns="http://www.w3.org/2000/svg" width="32.5" height="28.435" viewBox="0 0 32.5 28.435"><defs><style>.a{fill:#213d77;}</style></defs><path class="a" d="M39.631,21.887a7.447,7.447,0,0,0,0-2.7l1.638-.946a.46.46,0,0,0,.21-.54,9.527,9.527,0,0,0-2.108-3.644.463.463,0,0,0-.571-.089l-1.638.946a7.453,7.453,0,0,0-2.343-1.352V11.665a.462.462,0,0,0-.362-.451,9.578,9.578,0,0,0-4.2,0,.462.462,0,0,0-.362.451v1.892A7.453,7.453,0,0,0,27.55,14.91l-1.638-.946a.464.464,0,0,0-.571.089A9.527,9.527,0,0,0,23.233,17.7a.468.468,0,0,0,.209.54l1.638.946a7.447,7.447,0,0,0,0,2.7l-1.638.946a.46.46,0,0,0-.209.54,9.575,9.575,0,0,0,2.108,3.644.463.463,0,0,0,.571.089l1.638-.946a7.453,7.453,0,0,0,2.343,1.352V29.4a.462.462,0,0,0,.362.451,9.578,9.578,0,0,0,4.2,0,.462.462,0,0,0,.362-.451V27.511a7.453,7.453,0,0,0,2.343-1.352l1.638.946a.464.464,0,0,0,.571-.089,9.527,9.527,0,0,0,2.108-3.644.468.468,0,0,0-.21-.54l-1.638-.946Zm-7.269,1.727a3.079,3.079,0,1,1,3.079-3.079A3.082,3.082,0,0,1,32.362,23.613ZM21.189,16.471c.121,0,.235-.032.356-.038a11.7,11.7,0,0,1,2.3-3.758,2.5,2.5,0,0,1,1.835-.8,2.44,2.44,0,0,1,1.244.336l.5.292c.051-.032.1-.057.152-.089a7.027,7.027,0,0,0,.711-3.047,7.107,7.107,0,1,0-7.1,7.1Zm6.679,12.348c-.146-.076-.292-.165-.432-.248a3.136,3.136,0,0,1-1.746.622,2.523,2.523,0,0,1-1.835-.8A11.576,11.576,0,0,1,21.3,23.975c-.679-2.19,1.581-3.155,1.638-3.193q-.01-.248,0-.5l-.5-.292a2.586,2.586,0,0,1-.622-.514c-.21.013-.413.038-.622.038A10.022,10.022,0,0,1,16.847,18.5H16.32A7.317,7.317,0,0,0,9,25.816v1.828a3.048,3.048,0,0,0,3.047,3.047H28.261a2.444,2.444,0,0,1-.394-1.289v-.584Z" transform="translate(-9 -2.257)"/></svg>