<svg xmlns="http://www.w3.org/2000/svg" width="38.5" height="26.95" viewBox="0 0 38.5 26.95"><defs><style>.a{fill:#fff;}</style></defs><path class="a" d="M5.775,13.8a3.85,3.85,0,1,0-3.85-3.85A3.854,3.854,0,0,0,5.775,13.8Zm26.95,0a3.85,3.85,0,1,0-3.85-3.85A3.854,3.854,0,0,0,32.725,13.8Zm1.925,1.925H30.8a3.839,3.839,0,0,0-2.713,1.119A8.8,8.8,0,0,1,32.6,23.425h3.97A1.923,1.923,0,0,0,38.5,21.5V19.575A3.854,3.854,0,0,0,34.65,15.725Zm-15.4,0a6.737,6.737,0,1,0-6.738-6.738A6.734,6.734,0,0,0,19.25,15.725Zm4.62,1.925h-.5a9.3,9.3,0,0,1-8.241,0h-.5A6.932,6.932,0,0,0,7.7,24.58v1.733A2.888,2.888,0,0,0,10.587,29.2H27.912A2.888,2.888,0,0,0,30.8,26.313V24.58A6.932,6.932,0,0,0,23.87,17.65Zm-13.457-.806A3.839,3.839,0,0,0,7.7,15.725H3.85A3.854,3.854,0,0,0,0,19.575V21.5a1.923,1.923,0,0,0,1.925,1.925H5.889A8.821,8.821,0,0,1,10.413,16.844Z" transform="translate(0 -2.25)"/></svg>