<svg xmlns="http://www.w3.org/2000/svg" width="23.847" height="35.333" viewBox="0 0 23.847 35.333"><defs><style>.a{fill:#213d77;}</style></defs><path class="a" d="M91.8,24.632a4.752,4.752,0,0,1-3.781-.02.147.147,0,0,1,.087-.28,9.089,9.089,0,0,0,3.609.019.147.147,0,0,1,.084.28Zm9.019-18.766a7.916,7.916,0,0,0-4.792-3.5.589.589,0,0,0-.121-.983C91.928-.527,86.526-.732,83.158,2.515a10.786,10.786,0,0,0-2.918,7.867c0,3.3,0,3.082,0,3.158a.33.33,0,0,0,.66-.022V10.694a5.306,5.306,0,0,1,5.3-5.3h7.507a5.306,5.306,0,0,1,5.3,5.3v2.824a.33.33,0,0,0,.66.022c0-.077,0,.2,0-4.122A3.846,3.846,0,0,1,100.784,6.7a.594.594,0,0,0,.166-.343.629.629,0,0,0-.132-.493Zm1.062,25.4v3.478a.589.589,0,0,1-.589.589H78.621a.589.589,0,0,1-.589-.589V31.266a6.075,6.075,0,0,1,6.077-6.077,2.447,2.447,0,0,0,1.346-.4.586.586,0,0,1,.69.043,5.947,5.947,0,0,0,7.59-.018.585.585,0,0,1,.7-.041,2.445,2.445,0,0,0,1.37.414A6.075,6.075,0,0,1,101.879,31.266ZM96.506,32.9a.589.589,0,0,0-.589-.589H94.151a.589.589,0,1,0,0,1.178h1.766A.589.589,0,0,0,96.506,32.9Zm-2.8-26.332H86.2a4.127,4.127,0,0,0-4.122,4.122V15.56a7.876,7.876,0,0,0,15.751-.029V10.694a4.126,4.126,0,0,0-4.122-4.122Z" transform="translate(-78.032)"/></svg>